<?xml version="1.0" encoding="utf-8"?>
<!-- Generator: Adobe Illustrator 24.3.0, SVG Export Plug-In . SVG Version: 6.00 Build 0)  -->
<svg version="1.1" id="Calque_1" xmlns="http://www.w3.org/2000/svg" xmlns:xlink="http://www.w3.org/1999/xlink" x="0px" y="0px"
	 viewBox="0 0 2834.6 2834.6" style="enable-background:new 0 0 2834.6 2834.6;" xml:space="preserve">
<style type="text/css">
	.st0{fill:#70B62E;}
</style>
<path class="st0" d="M2834.6,1419.9c0,744.2-573.7,1354.6-1303,1412.7v-110.1c0,0,0-620.2,0-1039.2s401.8-546.8,401.8-546.8
	c-164.9,165.4-252.7,590-123.1,590c240.2,0,550.9-388.8,550.9-1049.9c-310.8,0-1101.9,25.5-1101.9,913.8
	c-382.3-382.3-823.2,23.7-823.2,23.7s0,0,255,255s611.3-21.8,611.3-21.8v985.3C573.7,2774.5,0,2164.1,0,1419.9
	c0-144.9,21.8-285.2,62.3-417.2c193.2-75.3,462.2-153.3,745.1-153.3c-73.9,296.4-73.9,296.4-73.9,296.4
	c79.9,0,133.3-64.1,133.3-64.1l100.8-229c0,0,49.7,6,122.6,6s116.1-74.8,116.1-74.8s-43.2-75.3-116.1-75.3s-122.6,6-122.6,6
	l-100.8-229c0,0-53.4-63.6-133.3-63.6c0,0,0,0,73.9,295.9c-203.5,0-399-40.4-564.9-91C497.1,249.7,928.2,2.1,1417.3,2.1
	C2200.1,2.1,2834.6,636.7,2834.6,1419.9z"/>
</svg>
